<svg version="1.1" xmlns="http://www.w3.org/2000/svg" xmlns:xlink="http://www.w3.org/1999/xlink" width="18.2" height="18.2"><g transform="translate(-230.9,-170.9)"><g data-paper-data="{&quot;isPaintingLayer&quot;:true}" fill="none" fill-rule="nonzero" stroke="none" stroke-width="none" stroke-linecap="butt" stroke-linejoin="miter" stroke-miterlimit="10" stroke-dasharray="" stroke-dashoffset="0" font-family="none" font-weight="none" font-size="none" text-anchor="none" style="mix-blend-mode: normal"><g data-paper-data="{&quot;origPos&quot;:null}"><path d="M249.09822,181.81965c0,1.25555 -0.90982,2.16538 -2.16538,2.16538h-1.25555v3.40273c0,0.90982 -0.80064,1.71046 -1.71046,1.71046h-3.29356v-1.25555c0,-1.36473 -1.12818,-2.38373 -2.38373,-2.38373c-1.36473,0 -2.38373,1.12818 -2.38373,2.38373v1.25555h-3.29356c-0.90982,0 -1.71046,-0.80064 -1.71046,-1.60129v-3.29356h1.25555c1.36473,0 2.38373,-1.12818 2.38373,-2.38373c0,-1.36473 -1.12818,-2.38373 -2.38373,-2.38373h-1.25555v-3.29356c0,-1.019 0.80064,-1.81965 1.81965,-1.81965h3.40273v-1.25555c0,-1.25555 0.90982,-2.16538 2.16538,-2.16538c1.14638,0 2.16538,0.90982 2.27456,2.16538v1.36473h3.40273c0.90982,0 1.71046,0.80064 1.71046,1.71046v3.40273h1.25555c1.25555,0 2.16538,0.90982 2.16538,2.27456zM242.16538,182.11079c0,-0.41852 -0.12738,-0.80064 -0.32753,-1.10998c-0.20016,-0.29114 -0.47311,-0.5095 -0.80064,-0.67327c-0.4913,-0.21836 -1.10998,-0.32753 -1.67407,-0.40032c-0.45491,-0.05459 -1.34654,-0.20016 -1.34654,-0.5277c0,-0.45491 0.78245,-0.38213 1.12818,-0.38213h0.07279c0.65507,0 1.14638,0.21836 1.5467,0.70966l1.21916,-1.18277c-0.74606,-0.85523 -1.67407,-1.31014 -2.80225,-1.31014h-0.32753c-1.92882,0 -3.25717,0.85523 -3.25717,2.16538c0,0.40032 0.10918,0.76425 0.32753,1.07359c0.18196,0.27295 0.45491,0.4913 0.78245,0.65507c0.5095,0.23655 1.09179,0.32753 1.65588,0.40032c0.45491,0.05459 1.40112,0.21836 1.40112,0.56409c0,0.30934 -0.58229,0.38213 -1.12818,0.38213h-0.23655c-1.07359,0 -1.49211,-0.45491 -1.51031,-0.47311l-1.23736,1.20097c0.07279,0.09098 0.89163,1.0372 2.74766,1.0372h1.0008c0.70966,0 2.76586,-0.32753 2.76586,-2.12898z" data-paper-data="{&quot;origPos&quot;:null}" fill="#1296db" stroke-width="1"/><path d="M242.1869,182.1198c0,1.80145 -2.07431,2.14306 -2.78397,2.14306l-1.0074,0.00003c-1.85604,0 -2.69024,-0.95517 -2.76303,-1.04615l1.27561,-1.22763c0.0182,0.0182 0.42325,0.46312 1.49684,0.46312l0.23358,-0.00062c0.54589,0 1.11218,-0.06924 1.11218,-0.37858c0,-0.34573 -0.94627,-0.47042 -1.40118,-0.52501c-0.56409,-0.07279 -1.15655,-0.17915 -1.66606,-0.41571c-0.32753,-0.16377 -0.60076,-0.38833 -0.78272,-0.66128c-0.21836,-0.30934 -0.32591,-0.67999 -0.32591,-1.08031c0,-1.31014 1.34977,-2.17991 3.27859,-2.17991l0.32971,0.00008c1.12818,0 2.07326,0.46469 2.81932,1.31992l-1.25878,1.20726c-0.40032,-0.4913 -0.87554,-0.69779 -1.53062,-0.69779l-0.07184,0.00016c-0.34573,0 -1.11198,-0.07625 -1.11198,0.37866c0,0.32753 0.8909,0.43346 1.34581,0.48805c0.56409,0.07279 1.19376,0.19766 1.68506,0.41601c0.32753,0.16377 0.6008,0.38855 0.80096,0.6797c0.20016,0.30934 0.32582,0.69839 0.32582,1.11691z" data-paper-data="{&quot;noHover&quot;:false,&quot;origItem&quot;:[&quot;Path&quot;,{&quot;applyMatrix&quot;:true,&quot;segments&quot;:[[[244.64009,184.52312],[0,0],[0,-0.89682]],[[243.93823,182.14459],[0.42891,0.66287],[-0.42892,-0.62388]],[[242.22257,180.70187],[0.70186,0.35093],[-1.05279,-0.46791]],[[238.63527,179.84404],[1.20877,0.15597],[-0.97481,-0.11698]],[[235.74983,178.71326],[0,0.70186],[0,-0.97481]],[[238.16736,177.89442],[-0.74086,0],[0,0]],[[238.32333,177.89442],[0,0],[1.40373,0]],[[241.63768,179.41512],[-0.85783,-1.05279],[0,0]],[[244.25017,176.88062],[0,0],[-1.59869,-1.83264]],[[238.24534,174.07317],[2.41753,0],[0,0]],[[237.54348,174.07317],[0,0],[-4.13319,0]],[[230.56384,178.71326],[0,-2.80745],[0,0.85783]],[[231.2657,181.01381],[-0.46791,-0.66287],[0.38992,0.58489]],[[232.94237,182.41754],[-0.70186,-0.35094],[1.09179,0.5069]],[[236.49068,183.27537],[-1.20877,-0.15597],[0.97481,0.11698]],[[239.49309,184.48413],[0,-0.74085],[0,0.66287]],[[237.07556,185.30297],[1.16977,0],[0,0]],[[236.56866,185.30297],[0,0],[-2.30055,0]],[[233.33229,184.28917],[0.039,0.03899],[0,0]],[[230.68081,186.86267],[0,0],[0.15597,0.19496]],[[236.56866,189.08524],[-3.97722,0],[0,0]],[[238.71324,189.08524],[0,0],[1.5207,0]],[[244.64008,184.52313],[0,3.86025],[0,0]]],&quot;closed&quot;:true,&quot;fillColor&quot;:[0.07059,0.58824,0.85882]}]}" fill="#ffffff" stroke-width="0.5"/><path d="M230.9,189.1v-18.2h18.2v18.2z" data-paper-data="{&quot;origPos&quot;:null}" fill="none" stroke-width="0"/></g></g></g></svg>