<svg version="1.1" xmlns="http://www.w3.org/2000/svg" xmlns:xlink="http://www.w3.org/1999/xlink" width="18.46901" height="23.07335"><g transform="translate(-230.76549,-168.46332)"><g data-paper-data="{&quot;isPaintingLayer&quot;:true}" fill="#1296db" fill-rule="nonzero" stroke="none" stroke-width="1" stroke-linecap="butt" stroke-linejoin="miter" stroke-miterlimit="10" stroke-dasharray="" stroke-dashoffset="0" font-family="none" font-weight="none" font-size="none" text-anchor="none" style="mix-blend-mode: normal"><path d="M247.68248,177.69785v10.76065h-15.36497v-2.23749c0,-1.46148 0.82774,-2.7807 2.12109,-3.44031l2.75483,-1.37095c0.77601,-0.388 1.28042,-1.18988 1.28042,-2.06935v-2.41856l-1.06054,0.53027c-0.29747,0.1552 -0.51734,0.42681 -0.60787,0.75014l-0.56907,2.27629c-0.0388,0.18107 -0.16814,0.32333 -0.34921,0.40094l-1.42268,0.56907c-0.14227,0.05173 -0.3104,0.05173 -0.45267,-0.01293l-2.8971,-1.28042c-0.20693,-0.09053 -0.33627,-0.29747 -0.33627,-0.53027v-7.60488c0,-0.3104 0.11641,-0.59494 0.33627,-0.81481l0.42681,-0.42681l-0.68547,-1.37095c-0.05173,-0.11641 -0.09053,-0.2328 -0.09053,-0.36214c0,-0.32333 0.25867,-0.58201 0.58201,-0.58201h7.11341c5.09579,0 9.22157,4.13871 9.22157,9.2345zM248.6525,189.22158h-17.30499c-0.32333,0 -0.58201,0.25867 -0.58201,0.58201v1.15108c0,0.32333 0.25867,0.58201 0.58201,0.58201h17.30499c0.32333,0 0.58201,-0.25867 0.58201,-0.58201v-1.15108c-0.01293,-0.32333 -0.2716,-0.58201 -0.58201,-0.58201zM233.27459,173.0806c-0.53027,0 -0.95708,0.42681 -0.95708,0.95708c0,0.53027 0.42681,0.95708 0.95708,0.95708c0.53027,0 0.95708,-0.42681 0.95708,-0.95708c0,-0.53027 -0.42681,-0.95708 -0.95708,-0.95708z" data-paper-data="{&quot;origPos&quot;:null}"/></g></g></svg>