<svg version="1.1" xmlns="http://www.w3.org/2000/svg" xmlns:xlink="http://www.w3.org/1999/xlink" width="19.58971" height="19.94305" viewBox="0,0,19.58971,19.94305"><g transform="translate(-230.01836,-170.01005)"><g data-paper-data="{&quot;isPaintingLayer&quot;:true}" fill="none" fill-rule="nonzero" stroke="none" stroke-width="1" stroke-linecap="none" stroke-linejoin="miter" stroke-miterlimit="10" stroke-dasharray="" stroke-dashoffset="0" font-family="none" font-weight="none" font-size="none" text-anchor="none" style="mix-blend-mode: normal"><g data-paper-data="{&quot;origPos&quot;:null}"><path d="M236.20225,187.5375l-5.42407,1.94125c-0.17129,0.0571 -0.34257,-0.11419 -0.28547,-0.28547l1.94125,-5.42407c1.54158,0.34257 2.16963,-0.45676 2.16963,-0.45676l2.05543,2.05543c0,0 -0.79934,0.62805 -0.45676,2.16963z" data-paper-data="{&quot;origPos&quot;:null}" fill="#f7c67f" stroke="#575e75" stroke-linecap="butt"/><path d="M236.65901,185.42497l-1.02772,-1.02772l-1.02772,-1.02772l0.11419,-1.42738l12.61809,-11.13361c0,0 0.85643,-0.74224 1.76996,0.11419c0.85643,0.85643 0.11419,1.76996 0.11419,1.76996l-11.13361,12.61809z" data-paper-data="{&quot;origPos&quot;:null}" fill="#f46d38" stroke="#575e75" stroke-linecap="butt"/><path d="M232.71942,187.25202l-2.16963,2.16963" data-paper-data="{&quot;origPos&quot;:null}" fill="none" stroke="#575e75" stroke-linecap="round"/><path d="M237.34416,179.54414l3.08315,3.08315l-1.65577,1.82706l-3.31154,-3.31154z" data-paper-data="{&quot;origPos&quot;:null}" fill="#95d8d6" stroke="#575e75" stroke-linecap="round"/><path d="M238.77154,184.45435l-0.68515,0.85643l-1.42738,0.0571l-2.11253,-2.05543l0.17129,-1.48448l0.74224,-0.68515l1.65577,1.65577z" data-paper-data="{&quot;origPos&quot;:null}" fill="#ffffff" stroke="#575e75" stroke-linecap="butt"/><path d="M235.85967,187.36622l-4.45345,1.54158l17.6425,-17.5854c0.39967,0.57095 -0.0571,1.19901 -0.0571,1.19901l-11.07652,12.561l-1.48448,0.11419c-0.22838,0.17129 -0.79934,0.91353 -0.57095,2.16963z" data-paper-data="{&quot;origPos&quot;:null}" fill="#353535" stroke="none" stroke-linecap="butt" opacity="0.2"/></g></g></g></svg>