<svg version="1.1" xmlns="http://www.w3.org/2000/svg" xmlns:xlink="http://www.w3.org/1999/xlink" width="18.3625" height="18.3625"><g transform="translate(-230.81875,-170.81875)"><g data-paper-data="{&quot;isPaintingLayer&quot;:true}" fill="none" fill-rule="none" stroke="none" stroke-width="none" stroke-linecap="none" stroke-linejoin="none" stroke-miterlimit="10" stroke-dasharray="" stroke-dashoffset="0" font-family="none" font-weight="none" font-size="none" text-anchor="none" style="mix-blend-mode: normal"><g data-paper-data="{&quot;origPos&quot;:null}"><path d="M234.70454,186.87511l-2.00104,0.83808l0.8395,-1.99492c0.57347,-1.36165 1.36871,-2.55333 2.36829,-3.54914l9.29896,-9.26459c0.39832,-0.39644 1.24771,-0.19304 1.8984,0.4553c0.64975,0.6474 0.85503,1.49395 0.45671,1.8904l-9.29896,9.26506c-0.99958,0.99628 -2.19597,1.78917 -3.56185,2.35982" fill="#ffffff" fill-rule="evenodd" stroke="#575e75" stroke-width="1" stroke-linecap="round" stroke-linejoin="round"/><path d="M238.52064,176.90568c0,0 1.2317,1.04525 2.04813,-0.72791c1.76657,-3.83729 3.86177,-2.71765 3.86177,-2.71765" fill="none" fill-rule="evenodd" stroke="#575e75" stroke-width="1" stroke-linecap="round" stroke-linejoin="round"/><path d="M247.73108,174.73844c0,0.218 -0.06592,0.41104 -0.2034,0.54805l-4.39523,4.37875c0.13277,-0.13654 0.19304,-0.31452 0.19304,-0.52733c0,-0.41151 -0.23871,-0.92425 -0.66199,-1.35035c-0.64128,-0.63939 -1.48171,-0.8475 -1.88428,-0.46613l4.39523,-4.37922c0.39738,-0.3955 1.24771,-0.19304 1.89981,0.452c0.42281,0.42563 0.65728,0.93319 0.65728,1.34423M235.53415,186.48526c-0.26979,0.14219 -0.54475,0.26837 -0.83055,0.39079l-2.00151,0.83714l0.84091,-1.99398c0.12148,-0.28438 0.24954,-0.55841 0.3922,-0.82725c0.32488,0.08616 0.68177,0.29427 0.99252,0.60361c0.31075,0.30981 0.51886,0.66482 0.60596,0.98969" fill="#4c97ff" fill-rule="evenodd" stroke="#575e75" stroke-width="1" stroke-linecap="round" stroke-linejoin="round"/><path d="M247.76781,174.70218c0,0.21847 -0.06592,0.41151 -0.20387,0.54852l-9.29519,9.266c-1.00288,0.99346 -2.2002,1.78587 -3.56515,2.35887l-2.00151,0.83667l0.45859,-1.09045l0.90635,-0.38043c1.36447,-0.57347 2.56133,-1.36542 3.56421,-2.35888l9.29566,-9.266c0.13748,-0.13748 0.2034,-0.33053 0.2034,-0.54852c0,-0.30416 -0.12712,-0.65917 -0.36725,-0.99911c0.11771,0.08098 0.23542,0.1775 0.347,0.28909c0.42281,0.4261 0.65728,0.93366 0.65728,1.3447" fill="#575e75" fill-rule="evenodd" stroke="#575e75" stroke-width="1" stroke-linecap="round" stroke-linejoin="round" opacity="0.15"/><path d="M239.27021,176.62412c0,0.23542 -0.19022,0.4261 -0.42563,0.4261c-0.23542,0 -0.4261,-0.19069 -0.4261,-0.42563c0,-0.23542 0.19163,-0.42516 0.42658,-0.42516c0.23542,0 0.42563,0.19022 0.42563,0.42563z" fill="#575e75" fill-rule="evenodd" stroke="#575e75" stroke-width="1" stroke-linecap="round" stroke-linejoin="round"/><path d="M230.81875,189.18125v-18.3625h18.3625v18.3625z" data-paper-data="{&quot;origPos&quot;:null}" fill="none" fill-rule="nonzero" stroke="none" stroke-width="0" stroke-linecap="butt" stroke-linejoin="miter"/><path d="M230.81875,189.18125v-18.3625h18.3625v18.3625z" data-paper-data="{&quot;origPos&quot;:null}" fill="none" fill-rule="nonzero" stroke="none" stroke-width="0" stroke-linecap="butt" stroke-linejoin="miter"/></g></g></g></svg>