<svg version="1.1" xmlns="http://www.w3.org/2000/svg" xmlns:xlink="http://www.w3.org/1999/xlink" width="19.74053" height="19.3969" viewBox="0,0,19.74053,19.3969"><g transform="translate(-230.12973,-170.30155)"><g data-paper-data="{&quot;isPaintingLayer&quot;:true}" fill="none" fill-rule="none" stroke="none" stroke-width="none" stroke-linecap="butt" stroke-linejoin="miter" stroke-miterlimit="10" stroke-dasharray="" stroke-dashoffset="0" font-family="none" font-weight="none" font-size="none" text-anchor="none" style="mix-blend-mode: normal"><g data-paper-data="{&quot;origPos&quot;:null}"><path d="M246.49112,183.41034c0.26476,1.32495 -0.96729,2.39559 -2.75557,2.39559c-1.78247,0 -3.43953,-1.07064 -3.69964,-2.39559c-0.26708,-1.32611 0.96729,-2.4014 2.75441,-2.4014c0.37507,0 0.74434,0.04877 1.09735,0.13586c0.18504,0.04563 0.36664,0.10423 0.54345,0.17534c0.50513,-0.01161 -0.06038,-1.33192 -1.06484,-7.09969c-1.23902,-7.14382 1.77667,-1.08574 5.09078,-1.599c3.31412,-0.51326 0.04413,2.79854 -2.11923,2.23186c-2.16219,-0.57248 -2.69983,-4.15368 0.15328,8.55818zM236.4698,178.33117c-2.16219,-0.57248 -2.69983,-4.15252 0.15096,8.55818c0.26244,1.32379 -0.97078,2.40024 -2.75209,2.40024c-1.78247,0 -3.43837,-1.07529 -3.70429,-2.4014c-0.26011,-1.32611 0.97194,-2.40024 2.7579,-2.40024c0.58177,0 1.14612,0.1138 1.65706,0.31585c0.47842,-0.03251 -0.08593,-1.38069 -1.07993,-7.09969c-1.24018,-7.14498 1.77434,-1.0869 5.08614,-1.599c3.31412,-0.51907 0.04413,2.79854 -2.1169,2.22606z" data-paper-data="{&quot;origPos&quot;:null}" fill="#575e75" fill-rule="evenodd" stroke-width="1"/><path d="M230.30154,189.69845v-19.3969h19.3969v19.3969z" data-paper-data="{&quot;origPos&quot;:null}" fill="none" fill-rule="nonzero" stroke-width="0"/></g></g></g></svg>