<svg version="1.1" xmlns="http://www.w3.org/2000/svg" xmlns:xlink="http://www.w3.org/1999/xlink" width="18.525" height="18.525"><g transform="translate(-230.7375,-170.7375)"><g data-paper-data="{&quot;isPaintingLayer&quot;:true}" fill="none" fill-rule="nonzero" stroke="none" stroke-width="none" stroke-linecap="butt" stroke-linejoin="miter" stroke-miterlimit="10" stroke-dasharray="" stroke-dashoffset="0" font-family="none" font-weight="none" font-size="none" text-anchor="none" style="mix-blend-mode: normal"><g data-paper-data="{&quot;origPos&quot;:null}"><path d="M249.20313,181.84062c0,1.27003 -0.92031,2.19034 -2.19034,2.19034h-1.27003v3.44197c0,0.92031 -0.80987,1.73019 -1.73019,1.73019h-3.33153v-1.27003c0,-1.38047 -1.14119,-2.41122 -2.41122,-2.41122c-1.38047,0 -2.41122,1.14119 -2.41122,2.41122v1.27003h-3.33153c-0.92031,0 -1.73019,-0.80988 -1.73019,-1.61975v-3.33153h1.27003c1.38047,0 2.41122,-1.14119 2.41122,-2.41122c0,-1.38047 -1.14119,-2.41122 -2.41122,-2.41122h-1.27003v-3.33153c0,-1.03075 0.80987,-1.84063 1.84062,-1.84063h3.44197v-1.27003c0,-1.27003 0.92031,-2.19034 2.19034,-2.19034c1.15959,0 2.19034,0.92031 2.30078,2.19034v1.38047h3.44197c0.92031,0 1.73019,0.80988 1.73019,1.73019v3.44197h1.27003c1.27003,0 2.19034,0.92031 2.19034,2.30078zM240.84669,181.93266l0.01841,-5.06172h-1.84062v4.91447c0,0.99394 -0.33131,1.28844 -0.92031,1.28844c-0.36812,0 -0.77306,-0.23928 -1.03075,-0.75466l-1.25162,0.93872c0.55219,0.93872 1.32525,1.39887 2.52166,1.39887c1.71178,0 2.50325,-1.23322 2.50325,-2.72412z" data-paper-data="{&quot;origPos&quot;:null}" fill="#1296db" stroke-width="1"/><path d="M238.34344,184.68053c-1.19641,0 -1.98635,-0.46721 -2.53854,-1.40592l1.28353,-0.97382c0.25769,0.51538 0.65005,0.74943 1.01818,0.74943c0.589,0 0.90469,-0.29064 0.90469,-1.28458l0.01727,-4.9181l1.84945,0.00346l-0.0098,5.0917c0,1.49091 -0.81299,2.73783 -2.52477,2.73783z" data-paper-data="{&quot;noHover&quot;:false,&quot;origItem&quot;:[&quot;Path&quot;,{&quot;applyMatrix&quot;:true,&quot;segments&quot;:[[[241.7825,184.06875],[0,3.13875],[0,0]],[241.82125,173.4125],[237.94625,173.4125],[[237.94625,183.75875],[0,0],[0,2.0925]],[[236.00875,186.47125],[1.24,0],[-0.775,0]],[[233.83875,184.8825],[0.5425,1.085],[0,0]],[[231.20375,186.85875],[0,0],[1.1625,1.97625]],[[236.5125,189.80375],[-2.51875,0],[3.60375,0]]],&quot;closed&quot;:true,&quot;fillColor&quot;:[0,0,0,1]}]}" fill="#ffffff" stroke-width="0.5"/><path d="M230.7375,189.2625v-18.525h18.525v18.525z" data-paper-data="{&quot;origPos&quot;:null}" fill="none" stroke-width="0"/></g></g></g></svg>