<svg version="1.1" xmlns="http://www.w3.org/2000/svg" xmlns:xlink="http://www.w3.org/1999/xlink" width="18.6875" height="18.6875"><g transform="translate(-230.65625,-170.65625)"><g data-paper-data="{&quot;isPaintingLayer&quot;:true}" fill="none" fill-rule="nonzero" stroke="none" stroke-width="none" stroke-linecap="butt" stroke-linejoin="miter" stroke-miterlimit="10" stroke-dasharray="" stroke-dashoffset="0" font-family="none" font-weight="none" font-size="none" text-anchor="none" style="mix-blend-mode: normal"><g data-paper-data="{&quot;origPos&quot;:null}"><path d="M234.48252,186.31701c-2.00243,0 -3.6159,-1.67109 -3.6159,-3.73115c0,-2.01684 1.55584,-3.67352 3.50065,-3.73115c0.08644,-1.58466 1.36857,-2.83797 2.92441,-2.83797c0.21609,0 0.44658,0.02881 0.64827,0.07203c0.90758,-1.4406 2.47782,-2.4058 4.26417,-2.4058c2.79476,0 5.05649,2.33377 5.05649,5.22936c0,0.12965 0,0.25931 -0.0144,0.38896c1.12367,0.63386 1.88718,1.85837 1.88718,3.27015c0,2.06005 -1.61347,3.73115 -3.6159,3.73115l-11.03496,0.0144z" data-paper-data="{&quot;origPos&quot;:null}" fill="#1296db" stroke-width="1"/><path d="M240.80673,183.72394c0.14406,0.7203 -0.50421,1.25332 -1.455,1.25332c-0.93639,0 -1.80075,-0.56183 -1.9304,-1.25332c-0.12965,-0.69149 0.50421,-1.25332 1.4406,-1.25332c0.20168,0 0.38896,0.02881 0.57624,0.07203c0.10084,0.0144 0.20168,0.04322 0.28812,0.08644c0.25931,0 -0.04322,-0.69149 -0.56183,-3.70233c-0.63386,-3.73115 0.93639,-0.56183 2.6651,-0.83555c1.72871,-0.27371 0.0144,1.46941 -1.10926,1.16688c-1.12366,-0.30253 -1.39738,-2.1753 0.08644,4.46585z" data-paper-data="{&quot;origPos&quot;:null}" fill="#ffffff" stroke-width="1"/><path d="M230.65625,189.34375v-18.6875h18.6875v18.6875z" data-paper-data="{&quot;origPos&quot;:null}" fill="none" stroke-width="0"/></g></g></g></svg>