<svg version="1.1" xmlns="http://www.w3.org/2000/svg" xmlns:xlink="http://www.w3.org/1999/xlink" width="18.19451" height="15.78182"><g transform="translate(-230.90274,-172.10909)"><g data-paper-data="{&quot;isPaintingLayer&quot;:true}" fill="none" fill-rule="nonzero" stroke="none" stroke-width="none" stroke-linecap="butt" stroke-linejoin="miter" stroke-miterlimit="10" stroke-dasharray="" stroke-dashoffset="0" font-family="none" font-weight="none" font-size="none" text-anchor="none" style="mix-blend-mode: normal"><g data-paper-data="{&quot;origPos&quot;:null}"><path d="M243.7161,186.4497h-7.46058l-3.71606,-6.4497l3.71606,-6.4497h7.46058l3.71606,6.4497c0.01419,0 -3.71606,6.4497 -3.71606,6.4497z" data-paper-data="{&quot;noHover&quot;:false,&quot;origItem&quot;:[&quot;Path&quot;,{&quot;applyMatrix&quot;:true,&quot;segments&quot;:[[[255.57049,180],[0.02983,0],[0,0]],[247.78524,166.48768],[232.1551,166.48768],[224.36985,180],[232.1551,193.51232],[247.78524,193.51232]],&quot;closed&quot;:true,&quot;fillColor&quot;:[0,0,0,1]}],&quot;origPos&quot;:null}" fill="#ffffff" stroke-width="0.5"/><path d="M244.56992,181.63211c0,0.63865 -0.51092,1.14957 -1.14957,1.14957c-0.63865,0 -1.14957,-0.51092 -1.14957,-1.14957c0,-0.07096 0,-0.12773 0.01419,-0.19869l-2.78169,-1.57535c-0.32642,0.38319 -0.82315,0.63865 -1.36246,0.65284l-0.26965,1.67469c0.35481,0.19869 0.59608,0.5535 0.59608,0.99346c0,0.63865 -0.51092,1.14957 -1.14957,1.14957c-0.63865,0 -1.14957,-0.51092 -1.14957,-1.14957c0,-0.5535 0.41158,-1.03604 0.95088,-1.12119l0.25546,-1.64631c-0.70962,-0.26965 -1.22053,-0.95088 -1.22053,-1.77404c0,-1.05023 0.85154,-1.90176 1.90176,-1.90176c0.61027,0 1.16377,0.28385 1.50438,0.7238l1.94434,-0.96508v-0.14193c0,-0.63865 0.51092,-1.14957 1.14957,-1.14957c0.63865,0 1.14957,0.51092 1.14957,1.14957c0,0.63865 -0.51092,1.14957 -1.14957,1.14957c-0.29804,0 -0.59608,-0.12773 -0.79477,-0.32642l-1.94434,0.96508c0.05677,0.17031 0.07096,0.32642 0.07096,0.49673c0,0.19869 -0.02839,0.39738 -0.08515,0.59608l2.78169,1.57535c0.19869,-0.15611 0.45415,-0.26965 0.738,-0.26965c0.61027,0 1.14957,0.52512 1.14957,1.09281z" data-paper-data="{&quot;origPos&quot;:null}" fill="#7f3f98" stroke-width="1"/><path d="M249.09726,180l-4.55572,7.89091h-9.08306l-4.55572,-7.89091l4.54153,-7.89091h9.09725zM247.40838,180l-3.70418,-6.4291h-7.43676l-3.70418,6.4291l3.70418,6.4291h7.43676c0,0 3.71838,-6.4291 3.70418,-6.4291z" data-paper-data="{&quot;origPos&quot;:null}" fill="#7f3f98" stroke-width="1"/></g></g></g></svg>