<svg version="1.1" xmlns="http://www.w3.org/2000/svg" xmlns:xlink="http://www.w3.org/1999/xlink" width="18.525" height="18.525"><g transform="translate(-230.7375,-170.7375)"><g data-paper-data="{&quot;isPaintingLayer&quot;:true}" fill="none" fill-rule="nonzero" stroke="none" stroke-width="none" stroke-linecap="butt" stroke-linejoin="miter" stroke-miterlimit="10" stroke-dasharray="" stroke-dashoffset="0" font-family="none" font-weight="none" font-size="none" text-anchor="none" style="mix-blend-mode: normal"><g data-paper-data="{&quot;origPos&quot;:null}"><path d="M247.00099,179.54092c1.26247,0 2.18063,0.91816 2.18063,2.2954c0,1.26247 -0.91816,2.18063 -2.18063,2.18063h-1.26247v3.44311c0,0.91816 -0.80339,1.72155 -1.72155,1.72155h-3.32834v-1.26247c0,-1.37724 -1.1477,-2.41017 -2.41017,-2.41017c-1.37724,0 -2.41017,1.1477 -2.41017,2.41017v1.26247h-3.32834c-0.91816,0 -1.72155,-0.80339 -1.72155,-1.60678v-3.32834h1.26247c1.37724,0 2.41017,-1.1477 2.41017,-2.41017c0,-1.37724 -1.1477,-2.41017 -2.41017,-2.41017h-1.26247v-3.32834c0,-1.03293 0.80339,-1.83633 1.83633,-1.83633h3.44311v-1.26247c0,-1.26247 0.91816,-2.18063 2.18063,-2.18063c1.1477,0 2.18063,0.91816 2.2954,2.18063v1.37724h3.44311c0.91816,0 1.72155,0.80339 1.72155,1.72155v3.44311z" data-paper-data="{&quot;origPos&quot;:null}" fill="#1296db" stroke-width="1"/><path d="M230.7375,189.2625v-18.525h18.525v18.525z" data-paper-data="{&quot;origPos&quot;:null}" fill="none" stroke-width="0"/></g></g></g></svg>