<svg version="1.1" xmlns="http://www.w3.org/2000/svg" xmlns:xlink="http://www.w3.org/1999/xlink" width="18.82798" height="18.6875"><g transform="translate(-230.51577,-170.65625)"><g data-paper-data="{&quot;isPaintingLayer&quot;:true}" fill="none" fill-rule="nonzero" stroke="none" stroke-width="none" stroke-linecap="butt" stroke-linejoin="miter" stroke-miterlimit="10" stroke-dasharray="" stroke-dashoffset="0" font-family="none" font-weight="none" font-size="none" text-anchor="none" style="mix-blend-mode: normal"><path d="M245.07232,183.12143c0,-1.14928 0.93167,-2.08095 2.08095,-2.08095c1.14928,0 2.08095,0.93167 2.08095,2.08095c0,1.14928 -0.93167,2.08095 -2.08095,2.08095c-1.14928,0 -2.08095,-0.93167 -2.08095,-2.08095z" data-paper-data="{&quot;origPos&quot;:null}" id="Oval-Copy" fill="#0ebd8c" stroke="none" stroke-width="1" opacity="0.25"/><path d="M245.07232,181.04048c0,-1.14928 0.93167,-2.08095 2.08095,-2.08095c1.14928,0 2.08095,0.93167 2.08095,2.08095c0,1.14928 -0.93167,2.08095 -2.08095,2.08095c-1.14928,0 -2.08095,-0.93167 -2.08095,-2.08095z" data-paper-data="{&quot;origPos&quot;:null}" id="Oval-Copy" fill="#0ebd8c" stroke="none" stroke-width="1" opacity="0.5"/><path d="M245.07232,178.95952c0,-1.14928 0.93167,-2.08095 2.08095,-2.08095c1.14928,0 2.08095,0.93167 2.08095,2.08095c0,1.14928 -0.93167,2.08095 -2.08095,2.08095c-1.14928,0 -2.08095,-0.93167 -2.08095,-2.08095z" data-paper-data="{&quot;origPos&quot;:null}" id="Oval-Copy" fill="#0ebd8c" stroke="none" stroke-width="1" opacity="0.75"/><path d="M245.07232,176.87857c0,-1.14928 0.93167,-2.08095 2.08095,-2.08095c1.14928,0 2.08095,0.93167 2.08095,2.08095c0,1.14928 -0.93167,2.08095 -2.08095,2.08095c-1.14928,0 -2.08095,-0.93167 -2.08095,-2.08095z" data-paper-data="{&quot;origPos&quot;:null}" id="Oval" fill="#0b9e74" stroke="none" stroke-width="1"/><path d="M242.66427,177.16847c0.03774,0.0772 0.06698,0.14542 0.06698,0.12629v5.35845c0,0.14698 -0.12122,0.26012 -0.26012,0.26012c-0.02521,0 -0.06566,-0.01733 -0.07619,-0.02786l-2.91141,-1.75591l-0.39395,-0.23637v1.18775c0,1.01267 -0.83152,1.87286 -1.82083,1.87286h-4.63012c-1.04854,-0.04583 -1.87286,-0.87015 -1.87286,-1.87286v-4.10988c0,-1.05289 0.81997,-1.87286 1.87286,-1.87286h4.63012c1.00779,0 1.82083,0.82706 1.82083,1.87286v1.20691l3.21088,-2.08113c0.14028,-0.08398 0.28819,-0.0544 0.36381,0.07162z" data-paper-data="{&quot;origPos&quot;:null}" id="video_37_" fill="#4d4d4d" stroke-opacity="0.15" stroke="#000000" stroke-width="0.5"/><path d="M230.65625,189.34375v-18.6875h18.6875v18.6875z" data-paper-data="{&quot;origPos&quot;:null}" fill="none" stroke="none" stroke-width="0"/></g></g></svg>