<svg version="1.1" xmlns="http://www.w3.org/2000/svg" xmlns:xlink="http://www.w3.org/1999/xlink" width="18.51993" height="18.52071"><g transform="translate(-230.66132,-170.81875)"><g data-paper-data="{&quot;isPaintingLayer&quot;:true}" fill="none" fill-rule="nonzero" stroke="none" stroke-width="none" stroke-linecap="butt" stroke-linejoin="miter" stroke-miterlimit="10" stroke-dasharray="" stroke-dashoffset="0" font-family="none" font-weight="none" font-size="none" text-anchor="none" style="mix-blend-mode: normal"><path d="M237.25897,188.38585c0,0.6139 -0.85048,0.9381 -1.37432,0.50544l-1.49959,-1.24721c-0.61514,-0.49885 -1.36311,-0.74261 -2.20421,-0.74261h-0.23082c-0.59714,0 -1.03871,-0.39785 -1.03871,-0.90732v-2.44369c0,-0.50947 0.44156,-0.90732 1.03871,-0.90732h0.23082c0.79344,0 1.55429,-0.26825 2.14237,-0.73924l1.55806,-1.24784c0.51558,-0.46388 1.37769,-0.13525 1.37769,0.45071z" data-paper-data="{&quot;origPos&quot;:null}" id="speaker" fill="#4d4d4d" stroke-opacity="0.15" stroke="#000000" stroke-width="0.5"/><path d="M242.97743,180.14348c-1.05504,1.30548 -2.76782,1.97849 -3.31405,1.97849c0,0 -0.3847,0 -0.3847,-0.3847c0,-0.3413 0.64885,-0.55283 0.79526,-2.09289c-1.4993,-0.76259 -2.52644,-2.32002 -2.52644,-4.11736c0,-2.5496 2.06686,-4.61647 4.61647,-4.61647h2.30824c2.5496,0 4.61647,2.06686 4.61647,4.61647c0,2.5496 -2.06686,4.61647 -4.61647,4.61647z" data-paper-data="{&quot;origPos&quot;:null}" id="speech" fill="#0ca579" stroke="none" stroke-width="1"/><path d="M230.81875,189.18125v-18.3625h18.3625v18.3625z" data-paper-data="{&quot;origPos&quot;:null}" fill="none" stroke="none" stroke-width="0"/></g></g></svg>